<svg xmlns="http://www.w3.org/2000/svg" xmlns:xlink="http://www.w3.org/1999/xlink" width="48" height="48"><defs><linearGradient id="b" x1="949.87" x2="974.39" y1="518.014" y2="544.657" gradientTransform="translate(-1454.353 211.343) scale(1.53785)" gradientUnits="userSpaceOnUse" xlink:href="#a"/><linearGradient id="a"><stop offset="0" stop-color="#24f7bc"/><stop offset="1" stop-color="#24c4fc"/></linearGradient></defs><g transform="translate(0 -1004.362)"><rect width="48" height="48" y="1004.362" fill="url(#b)" rx="10.144" ry="10.144"/><path style="line-height:normal;text-indent:0;text-align:start;text-decoration-line:none;text-transform:none;block-progression:tb" fill="#fff" d="M13.5 1016.362c-.822 0-1.5.678-1.5 1.5v15c0 .823.678 1.5 1.5 1.5h7.643c.347.902.283 1.566-.038 2.18-.334.642-.988 1.24-1.773 1.82H17.5a.523.523 0 0 0-.507.5.52.52 0 0 0 .507.5h14a.523.523 0 0 0 .507-.5.52.52 0 0 0-.507-.5h-1.82c-.662-.526-1.282-1.013-1.63-1.605-.337-.576-.462-1.285-.157-2.395H35.5c.822 0 1.5-.677 1.5-1.5v-15c0-.822-.678-1.5-1.5-1.5zm0 1h22c.286 0 .5.215.5.5v11.5H13v-11.5c0-.285.214-.5.5-.5zm-.5 13h23v2.5c0 .286-.214.5-.5.5h-22a.488.488 0 0 1-.5-.5zm11.5.867a.758.758 0 0 0-.75.75c0 .409.342.75.75.75s.75-.341.75-.75a.758.758 0 0 0-.75-.75zm-2.38 3.15h4.808c-.246 1.167-.166 2.153.261 2.882.283.48.713.756 1.104 1.101h-7.62c.478-.429 1.031-.805 1.32-1.357.385-.74.396-1.65.126-2.625z" color="#000" font-family="sans-serif" font-weight="400" overflow="visible"/></g></svg>