<svg xmlns="http://www.w3.org/2000/svg" version="1.1" id="Layer_1" x="0" y="0" viewBox="0 0 150 150" xml:space="preserve"><style>.st0{fill:#45b39c}.st2{fill:#f6c358}.st3{fill:#fcd462}.st4{fill:none}.st5{fill:#dc8744}.st6{fill:#334d5c}.st7{fill:#efc84a}.st8{fill:#44c4a1}.st9{fill:#3ea69b}.st11{fill:#ebf0f3}.st12{fill:#27a2db}.st13{fill:#2d93ba}.st16{fill:#e56353}.st17{fill:#e05b49}.st18{fill:#31978c}.st19{fill:#d15241}.st20{fill:#64798a}.st21{fill:#3a556a}.st22{fill:#1c75a1}.st23{fill:#fff}.st24{fill:#2f4859}.st25{fill:#3b566a}.st26{fill:#64798a;stroke:#3b566a;stroke-width:2;stroke-linecap:round;stroke-linejoin:round;stroke-miterlimit:10}.st27{fill:#ce412d}.st28{fill:none;stroke:#2d93ba;stroke-width:4;stroke-miterlimit:10}</style><path fill="#EA8953" d="M11 11h128v128H11z" style="fill:#ea8953"/><path d="m101.745 43.1-.19.2-3.31-3.3-.08-.08v-.01a.765.765 0 0 0-.31-.22l-2.39-.99a.858.858 0 0 0-1.12.47l-.69 1.64c-.25-.07-.51-.14-.77-.21l-2.81-2.81-.01-.01a.845.845 0 0 0-.63-.28h-2.58a.86.86 0 0 0-.86.86v1.78c-.86.1-1.71.25-2.53.45h-.01l-1.64-1.64-.07-.07a.864.864 0 0 0-.92-.18l-2.38.99c-.44.18-.65.68-.47 1.12l.68 1.65c-1 .55-1.96 1.19-2.84 1.9l-1.27-1.26a.863.863 0 0 0-1.21 0l-1.83 1.83c-.34.34-.34.88 0 1.22l1.26 1.26c-.56.71-1.08 1.45-1.56 2.23h-1.82l-.17-.07a.828.828 0 0 0-.78.07h-1.7c-.46 0-.86.31-.97.75l-1.53 6.04c-2.05.57-4 1.37-5.82 2.4l-5.34-3.18a1 1 0 0 0-1.22.15l-6.08 6.09c-.33.32-.39.82-.16 1.22l3.19 5.34a25.035 25.035 0 0 0-2.4 5.82l-6.04 1.53c-.45.11-.76.51-.76.97v8.6c0 .27.11.53.3.71l.06.06 8.36 8.36-2.71 4.53c-.23.4-.17.9.16 1.22l6.08 6.09L84.515 139H139V79.135l-36.035-36.036a.876.876 0 0 0-1.22 0z" opacity=".1" style="opacity:.1"/><path d="M109.531 57.592h-1.782a19.609 19.609 0 0 0-.668-3.36l1.646-.681a.861.861 0 0 0 .466-1.125l-.988-2.387a.861.861 0 0 0-1.126-.466l-1.644.68a19.756 19.756 0 0 0-1.907-2.845l1.262-1.262a.861.861 0 0 0 0-1.217l-1.827-1.827a.861.861 0 0 0-1.217 0l-1.262 1.262a19.745 19.745 0 0 0-2.846-1.907l.681-1.644a.861.861 0 0 0-.466-1.125l-2.387-.989a.861.861 0 0 0-1.125.466l-.681 1.646a19.62 19.62 0 0 0-3.36-.668v-1.782a.861.861 0 0 0-.861-.861h-2.584a.861.861 0 0 0-.86.861v1.782a19.618 19.618 0 0 0-3.36.668l-.683-1.646a.861.861 0 0 0-1.125-.466l-2.386.989a.861.861 0 0 0-.466 1.125l.68 1.644a19.754 19.754 0 0 0-2.845 1.907l-1.262-1.262a.861.861 0 0 0-1.217 0l-1.827 1.827a.861.861 0 0 0 0 1.217l1.262 1.262a19.75 19.75 0 0 0-1.908 2.846l-1.644-.681a.861.861 0 0 0-1.125.466l-.164.396 4.383 5.126.585.405c1.695-6.858 7.872-11.95 15.254-11.95 8.687 0 15.73 7.042 15.73 15.73 0 7.136-4.757 13.153-11.27 15.077l.198.282 3.843 5.197 1.205-.5a.861.861 0 0 0 .466-1.124l-.68-1.644a19.752 19.752 0 0 0 2.845-1.908l1.262 1.262a.861.861 0 0 0 1.217 0l1.827-1.827a.861.861 0 0 0 0-1.217l-1.262-1.262c.714-.89 1.354-1.84 1.908-2.846l1.643.681a.861.861 0 0 0 1.126-.466l.988-2.386a.861.861 0 0 0-.466-1.125l-1.646-.682c.316-1.085.543-2.207.668-3.36h1.782a.861.861 0 0 0 .861-.861v-2.583a.861.861 0 0 0-.861-.862z" fill="#E1E6E9" style="fill:#e1e6e9"/><path d="M102.471 85.372v-8.606a1 1 0 0 0-.755-.97L95.68 74.27a25.398 25.398 0 0 0-2.405-5.821l3.186-5.343a1 1 0 0 0-.152-1.22l-6.086-6.084a1 1 0 0 0-1.219-.152l-5.343 3.185a25.398 25.398 0 0 0-5.82-2.405l-1.528-6.037a1 1 0 0 0-.97-.755h-8.605a1 1 0 0 0-.97.755l-1.527 6.037a25.402 25.402 0 0 0-5.821 2.405l-5.343-3.185a1 1 0 0 0-1.22.151l-6.085 6.086a1 1 0 0 0-.152 1.219l3.186 5.343a25.394 25.394 0 0 0-2.405 5.82l-6.037 1.528a1 1 0 0 0-.755.97v8.606a1 1 0 0 0 .755.97l6.038 1.527a25.396 25.396 0 0 0 2.404 5.82l-3.185 5.343a1 1 0 0 0 .152 1.22l6.085 6.085a1 1 0 0 0 1.219.152l5.343-3.185a25.399 25.399 0 0 0 5.82 2.404l1.528 6.037a1 1 0 0 0 .97.755h8.606a1 1 0 0 0 .969-.755l1.528-6.037a25.397 25.397 0 0 0 5.82-2.404l5.343 3.185a1 1 0 0 0 1.22-.152l6.084-6.085a1 1 0 0 0 .152-1.22l-3.185-5.342a25.4 25.4 0 0 0 2.405-5.821l6.037-1.528a1 1 0 0 0 .755-.97zM71.039 99.88c-10.389 0-18.811-8.422-18.811-18.811 0-10.39 8.422-18.812 18.811-18.812 10.39 0 18.812 8.422 18.812 18.812 0 10.389-8.422 18.811-18.812 18.811z" fill="#D5D6DB" style="fill:#d5d6db"/></svg>