<?xml version="1.0" encoding="UTF-8"?><svg xmlns="http://www.w3.org/2000/svg" xmlns:xlink="http://www.w3.org/1999/xlink" version="1.1" id="Layer_1" x="0px" y="0px" viewBox="0 0 100 100" xml:space="preserve"><style type="text/css">.st0{fill:#03ADAD;} .st1{fill:#E64B3F;} .st2{fill:none;stroke:#000000;stroke-width:2;stroke-linecap:round;stroke-linejoin:round;stroke-miterlimit:10;} .st3{fill:#973732;} .st4{fill:#FFFFFF;} .st5{fill:#DAAC01;} .st6{fill:#CD811C;} .st7{fill:#DC6E79;} .st8{fill:#A1334B;} .st9{fill:#98B260;} .st10{fill:#738748;} .st11{fill:#F36C00;} .st12{fill:#C05600;} .st13{fill:#E46675;} .st14{fill:#A35BB4;} .st15{fill:#76418F;} .st16{fill:#2EC19C;} .st17{fill:#348969;} .st18{fill:#04847D;}</style><path class="st9" fill="#98B260" d="M2 2h96v96H2z"/><path class="st10" d="M54.5 25.27a1.004 1.004 0 0 0-1.69.73v.82L50.99 25h-16.9a2.61 2.61 0 0 0-2.61 2.6v44.8c0 .73.31 1.39.8 1.86L56.018 98H98V68.161l-29.79-29.79-13.71-13.1z" fill="#738748"/><path class="st4" d="M67.518 42.092h-12.11a4.605 4.605 0 0 1-4.6-4.6v-11.49c0-.349.067-.685.18-1.002H34.086a2.606 2.606 0 0 0-2.603 2.603v44.794A2.606 2.606 0 0 0 34.086 75h31.828a2.606 2.606 0 0 0 2.602-2.603V41.913c-.316.113-.65.179-.998.179zm-24.55-13.05c1.05 0 2.07.28 2.96.81.47.28.63.88.35 1.36l-1.57 2.7h3.13c.55 0 1 .45 1 1 0 3.25-2.64 5.89-5.87 5.89-3.25 0-5.89-2.64-5.89-5.89 0-3.23 2.64-5.87 5.89-5.87zm18.99 39.42H38.041a1 1 0 1 1 0-2h23.917a1 1 0 1 1 0 2zm0-7.34H38.041a1 1 0 1 1 0-2h23.917a1 1 0 1 1 0 2zm0-7.339H38.041a1 1 0 0 1 0-2h23.917a1 1 0 0 1 0 2zm0-7.34H38.041a1 1 0 0 1 0-2h23.917a1 1 0 0 1 0 2z" fill="#FFF"/><path class="st4" d="M55.408 40.092h12.11c.41 0 .77-.25.93-.63.15-.38.05-.81-.24-1.09l-13.71-13.1a1.004 1.004 0 0 0-1.69.73v11.49c0 1.43 1.17 2.6 2.6 2.6z" fill="#FFF"/><metadata><rdf:RDF xmlns:rdf="http://www.w3.org/1999/02/22-rdf-syntax-ns#" xmlns:rdfs="http://www.w3.org/2000/01/rdf-schema#" xmlns:dc="http://purl.org/dc/elements/1.1/"><rdf:Description about="https://iconscout.com/legal#licenses" dc:title="document,report,file,page" dc:description="document,report,file,page" dc:publisher="Iconscout" dc:date="2017-11-11" dc:format="image/svg+xml" dc:language="en"><dc:creator><rdf:Bag><rdf:li>Dinosoft Labs</rdf:li></rdf:Bag></dc:creator></rdf:Description></rdf:RDF></metadata></svg>